<?xml version="1.0" encoding="UTF-8"?>
<svg version="1.1" xmlns="http://www.w3.org/2000/svg" width="980" height="980">
<path d="M0 0 C4.2334975 2.02336278 7.69303911 4.69303911 11 8 C11.31439243 10.91093116 11.50468662 13.73246029 11.60742188 16.65283203 C11.64480217 17.54302095 11.68218246 18.43320988 11.7206955 19.35037422 C12.13700055 30.08146272 12.21161756 40.81691072 12.28125 51.5546875 C12.29906621 53.80326157 12.31730627 56.05183232 12.3359375 58.30039978 C12.37463642 63.04437906 12.41104359 67.78836759 12.44555664 72.53237915 C12.52697936 83.66130771 12.62288903 94.79011556 12.71824646 105.91893196 C12.73941926 108.39268958 12.76046618 110.86644829 12.78138733 113.34020805 C12.96000467 134.44123562 13.17691486 155.54133954 13.47036743 176.64109039 C13.49966059 178.787629 13.52731636 180.93418253 13.55444336 183.08074951 C12.13802142 216.53641653 12.13802142 216.53641653 26.19140625 245.35546875 C36.95412016 255.66901643 47.65148897 259.35395958 62.3359375 259.21484375 C75.25761835 258.4571759 86.37512031 253.44543164 95.73828125 244.58203125 C104.91885823 234.10126892 107.02638797 219.95365011 108.9375 206.625 C112.70431778 182.09492274 121.73436706 161.31325962 142 146 C161.50418987 132.40308435 183.00373929 127.57345901 206.390625 131.25 C228.84935061 135.91674818 247.93367766 149.34957291 260.82324219 168.13964844 C269.64797005 182.09077422 272.00854592 196.35612895 272.55639648 212.53808594 C272.59857772 213.7622308 272.64075895 214.98637566 272.68421841 216.24761581 C273.11597783 229.92800875 273.13005297 243.60614495 273.10139394 257.29174137 C273.09498901 260.8884008 273.09454346 264.48506182 273.09336853 268.08172607 C273.09030429 274.8417098 273.08215974 281.60167667 273.07201904 288.36165309 C273.06070207 296.07920278 273.05530888 303.79675343 273.05032361 311.51430941 C273.03997083 327.34288258 273.02247037 343.17143909 273 359 C274.11831207 358.99777939 275.23662415 358.99555878 276.38882446 358.99327087 C287.11977072 358.97267171 297.85071278 358.9578558 308.58167458 358.94818783 C314.09368359 358.94304984 319.60567621 358.93612593 325.11767578 358.92456055 C346.89743806 358.88011589 368.6681068 358.87060059 390.44140625 359.4609375 C391.21683903 359.48180357 391.9922718 359.50266964 392.79120255 359.52416801 C455.25269203 361.25615802 512.00544525 385.66050586 557 429 C557.61020996 429.58297852 558.22041992 430.16595703 558.84912109 430.76660156 C567.24038371 438.81724362 574.91211046 447.09016537 581.8359375 456.43896484 C582.87850799 457.83707636 583.9529216 459.21130995 585.03125 460.58203125 C621.24531789 507.704845 632.0698637 562.89433361 632.21867895 620.73397768 C632.22678493 623.58000475 632.23845189 626.42601319 632.25009376 629.27202766 C632.29159554 639.44044134 632.31916187 649.60887702 632.34375 659.77734375 C632.34671235 660.9834981 632.34671235 660.9834981 632.34973454 662.21401921 C632.38892073 678.22414474 632.42251491 694.23427883 632.44481659 710.24443722 C632.44978442 713.74913991 632.45482901 717.25384247 632.45996094 720.75854492 C632.46186694 722.06487521 632.46186694 722.06487521 632.46381146 723.39759601 C632.48518493 737.51383175 632.53421655 751.62983525 632.59420508 765.74595409 C632.65547711 780.28531621 632.69002405 794.82455854 632.6992898 809.36404806 C632.70517658 817.50903216 632.72269662 825.65362053 632.77067566 833.79847527 C632.81147997 840.73075148 632.82807654 847.66256688 632.81402284 854.59495776 C632.80760299 858.12367323 632.81203896 861.65140917 632.84789658 865.17996979 C632.98272665 880.91112922 632.26452604 893.87990913 625 908 C624.32816125 909.37478388 623.65790346 910.75034151 622.98925018 912.12667751 C618.60750538 921.08678508 612.97366956 929.04496479 607 937 C606.40445313 937.84433594 605.80890625 938.68867187 605.1953125 939.55859375 C600.66146546 945.81703811 595.1588036 950.37889509 589 955 C587.99839844 955.75410156 586.99679687 956.50820313 585.96484375 957.28515625 C575.06695213 965.15810645 563.47776089 971.03970349 550.75 975.375 C550.05430908 975.61371826 549.35861816 975.85243652 548.6418457 976.09838867 C519.19223338 985.58774633 484.94631306 980.71369313 457.67578125 966.86328125 C436.33016933 955.50198793 419.12452356 938.44993873 402.23852539 921.44433594 C399.54828331 918.73568603 396.84997291 916.03527554 394.15039062 913.3359375 C392.41358797 911.59422306 390.67724342 909.85205167 388.94140625 908.109375 C388.14650284 907.31335876 387.35159943 906.51734253 386.53260803 905.69720459 C382.40486976 901.53459162 378.44898706 897.28742061 374.62190247 892.84750366 C372.16177659 890.04518252 369.55133419 887.40798685 366.91015625 884.77734375 C366.3619371 884.22816788 365.81371796 883.678992 365.24888611 883.11317444 C364.1014768 881.96509162 362.95283192 880.81824237 361.80297852 879.67260742 C360.066064 877.941053 358.33456111 876.20421641 356.60351562 874.46679688 C351.43785238 869.29807845 346.26633081 864.20518859 340.7019043 859.46118164 C338.53278268 857.59886735 336.46362576 855.64276765 334.38793945 853.67773438 C281.71839138 803.97440743 214.23035075 786.80991968 143.50292969 786.81469727 C139.90287331 786.81251688 136.30312727 786.79431472 132.703125 786.77539062 C114.40258393 786.73040532 96.2557649 787.60670486 78.1875 790.6875 C77.21014893 790.85338623 76.23279785 791.01927246 75.22583008 791.19018555 C26.64958414 799.92564185 -16.71229746 822.92036857 -53 856 C-53.94407715 856.85948242 -53.94407715 856.85948242 -54.90722656 857.73632812 C-62.97379639 865.11819162 -70.8143964 872.72285865 -78.5625 880.4375 C-79.66911987 881.5371106 -79.66911987 881.5371106 -80.7980957 882.65893555 C-84.8391369 886.71194474 -88.70837497 890.85487999 -92.42358398 895.20922852 C-94.0474989 897.05395763 -95.74723599 898.77771043 -97.5 900.5 C-99.74095559 902.70275054 -101.83624958 904.94443866 -103.859375 907.34765625 C-108.9339499 913.17993063 -114.42239549 918.60841721 -119.88671875 924.07202148 C-121.73728967 925.92477468 -123.57970076 927.78538706 -125.421875 929.64648438 C-132.30575859 936.56298261 -139.30201348 942.98680412 -147 949 C-148.12019119 949.91458648 -149.23897749 950.83090044 -150.35546875 951.75 C-165.45764343 963.7484174 -182.34566379 972.02267426 -201 977 C-202.12019531 977.30164063 -203.24039063 977.60328125 -204.39453125 977.9140625 C-235.63138923 985.03300564 -268.50070521 978.7638925 -295.4765625 961.87109375 C-303.35820858 956.61352793 -310.2705136 950.62752449 -317 944 C-318.28003906 942.75669922 -318.28003906 942.75669922 -319.5859375 941.48828125 C-337.37479055 923.16632378 -346.59782868 899.92730011 -347.55342102 874.69018555 C-347.59552147 873.59771106 -347.63762192 872.50523657 -347.68099815 871.37965679 C-348.12470234 858.90604132 -348.14818823 846.43709177 -348.14526367 833.95703125 C-348.14826537 831.35354566 -348.15167017 828.75006051 -348.15544128 826.14657593 C-348.16364202 819.87642067 -348.16649116 813.60627483 -348.16705366 807.33611465 C-348.1675335 802.22965982 -348.16961115 797.12320802 -348.17275429 792.01675415 C-348.18152848 777.46064028 -348.18617824 762.9045337 -348.18542381 748.34841716 C-348.18538386 747.56860551 -348.1853439 746.78879387 -348.18530273 745.98535156 C-348.18526185 745.2045621 -348.18522097 744.42377264 -348.18517885 743.6193229 C-348.18477231 730.96339677 -348.19435259 718.30750037 -348.2084411 705.65158284 C-348.22287512 692.57981512 -348.22970759 679.50806185 -348.22884732 666.43628597 C-348.22851799 659.12805353 -348.23114859 651.81985235 -348.24202538 644.5116272 C-348.25219462 637.63637856 -348.2517241 630.76119644 -348.24450874 623.88594437 C-348.24347438 621.38405892 -348.24575619 618.88216918 -348.2518692 616.38029099 C-348.29832258 596.027768 -348.13371932 575.23050357 -343.8125 555.25 C-343.59891846 554.22962646 -343.38533691 553.20925293 -343.1652832 552.15795898 C-339.48165313 535.3302593 -333.41603647 519.50853573 -326 504 C-325.51080078 502.97398682 -325.51080078 502.97398682 -325.01171875 501.92724609 C-315.42732134 481.98043496 -304.41041205 463.85503553 -290 447 C-289.01 445.84177734 -289.01 445.84177734 -288 444.66015625 C-277.65346241 432.88313146 -266.51271046 421.47142667 -254 412 C-253.46117187 411.58476074 -252.92234375 411.16952148 -252.3671875 410.74169922 C-242.37115071 403.05696578 -231.91996985 396.29536724 -221 390 C-220.26330078 389.57332031 -219.52660156 389.14664062 -218.76757812 388.70703125 C-177.30438404 365.00335829 -135.08403576 360.08820206 -88.3125 359.46875 C-86.82284531 359.44834978 -85.33319077 359.42793836 -83.84353638 359.40751648 C-37.59796325 358.78390383 8.65331766 358.63707675 54.90258789 358.55531311 C57.67496763 358.55031718 60.44734716 358.54522012 63.21972656 358.54003906 C63.9076123 358.53876538 64.59549803 358.5374917 65.30422878 358.53617942 C76.62431517 358.51448652 87.94412575 358.46502373 99.26407111 358.40579492 C111.0376883 358.34471566 122.81115976 358.31001755 134.58493328 358.3007102 C141.13759192 358.29447624 147.68971566 358.27653253 154.24221802 358.22932434 C160.34342132 358.18583323 166.44379215 358.17511511 172.54512405 358.18995285 C174.77728401 358.18962366 177.00947933 358.17730525 179.24149704 358.15210342 C182.2862811 358.11952252 185.32798835 358.13010959 188.37280273 358.15148926 C189.25337373 358.13178149 190.13394472 358.11207372 191.04119968 358.09176874 C195.90162788 358.1780251 198.43918868 358.90087966 201.97669983 362.33818817 C206.0078263 366.83648803 207.96522743 370.80932838 208.0625 376.9375 C207.19909069 381.87811994 204.27882633 385.34491491 201 389 C200.4086294 389.68793367 199.8172588 390.37586733 199.20796788 391.08464748 C196.56279328 393.37926503 195.45438453 393.50116172 192.00454521 393.50501537 C190.99198028 393.51584626 189.97941536 393.52667715 188.93616664 393.53783625 C187.82550527 393.52939372 186.7148439 393.52095118 185.57052612 393.51225281 C184.38897229 393.51904849 183.20741846 393.52584418 181.99005997 393.5328458 C178.70844083 393.54771594 175.427395 393.54466741 172.14577675 393.53414643 C168.60607933 393.52715265 165.06647856 393.54319478 161.52680969 393.55648804 C155.38763174 393.57642208 149.24857808 393.58183205 143.10937119 393.57755089 C134.20480842 393.57145115 125.3004036 393.58834507 116.39587285 393.61096082 C101.91170516 393.64721213 87.4275685 393.66633496 72.94335938 393.67407227 C58.93715973 393.68160375 44.93098903 393.69464618 30.92480469 393.71704102 C29.6356472 393.71909706 29.6356472 393.71909706 28.32044612 393.72119465 C18.90731357 393.73636958 9.49418438 393.75314263 0.08105659 393.77101612 C-1.16601856 393.77337408 -1.16601856 393.77337408 -2.43828716 393.77577967 C-3.26671618 393.77734638 -4.0951452 393.7789131 -4.94867814 393.78052729 C-6.18668473 393.78286841 -6.18668473 393.78286841 -7.44970156 393.78525683 C-9.10657225 393.78840732 -10.76344289 393.79158734 -12.42031346 393.79479728 C-22.10639327 393.81347827 -31.79245306 393.82744701 -41.47855 393.83259294 C-47.57729309 393.8358707 -53.67602782 393.84218454 -59.7747658 393.8507212 C-63.27768043 393.85544615 -66.78057698 393.85860109 -70.28349495 393.85725212 C-136.58993009 393.84544743 -195.25015067 402.93818037 -245.3515625 450.52734375 C-247.24682442 452.29681395 -249.13127883 453.95621589 -251.1328125 455.59375 C-254.88322227 458.74123286 -257.85365968 462.2656756 -261 466 C-261.74121094 466.84175781 -262.48242188 467.68351562 -263.24609375 468.55078125 C-281.7947295 490.00784308 -295.72558953 515.73785419 -304.75 542.5625 C-305.0073291 543.32715576 -305.2646582 544.09181152 -305.52978516 544.87963867 C-306.40028426 547.57397469 -307.20013858 550.28371818 -308 553 C-308.29447651 553.97303715 -308.29447651 553.97303715 -308.59490204 554.96573162 C-312.08474974 566.62845298 -313.7420412 577.2571397 -313.70703125 589.40234375 C-313.72044171 591.12366848 -313.73589342 592.84497823 -313.75312805 594.56626892 C-313.79418462 599.34209513 -313.80362994 604.11753422 -313.80728912 608.89351654 C-313.81436453 613.02668215 -313.83962272 617.15966164 -313.8646965 621.29275131 C-313.95195141 635.8218585 -313.9742287 650.35094291 -313.99078536 664.88025832 C-313.99779819 670.78986777 -314.00812031 676.69946746 -314.01959229 682.60906982 C-314.02225915 683.98586195 -314.02225915 683.98586195 -314.02497989 685.39046806 C-314.02678372 686.32167333 -314.02858756 687.2528786 -314.03044605 688.21230221 C-314.07919567 713.4109642 -314.10758983 738.60961803 -314.12303114 763.80832148 C-314.12499955 766.87430369 -314.12725678 769.94028558 -314.12958145 773.00626755 C-314.13823124 784.82218944 -314.14062382 796.63808818 -314.13463402 808.45401192 C-314.13294274 812.09742189 -314.13347143 815.74082028 -314.13607216 819.38422966 C-316.34508914 873.19189085 -316.34508914 873.19189085 -292.08984375 919.0078125 C-283.8536337 927.18269758 -274.51127772 934.05729231 -264 939 C-263.22785156 939.37640625 -262.45570313 939.7528125 -261.66015625 940.140625 C-242.35913163 948.7474047 -220.50810405 947.48167729 -201 940.375 C-176.31493161 930.86490558 -158.03891975 913.09895479 -139.625 894.75 C-139.10280884 894.23057831 -138.58061768 893.71115662 -138.04260254 893.17599487 C-132.65072874 887.80498942 -127.35119426 882.40484688 -122.39990234 876.61816406 C-120.14238615 874.00867377 -117.667376 871.64436303 -115.1875 869.25 C-113.40966868 867.4213735 -111.7713611 865.56889351 -110.12109375 863.62890625 C-105.01479778 857.75251608 -99.45974066 852.31069952 -93.94848633 846.81811523 C-92.06671726 844.94170525 -90.19035262 843.06001031 -88.31445312 841.17773438 C-82.38163426 835.24108142 -76.44926382 829.38153513 -70 824 C-69.4222583 823.50491943 -68.8445166 823.00983887 -68.24926758 822.49975586 C-28.37697323 788.46675542 18.31264089 767.3178266 69.4375 756.6875 C70.13206299 756.54014404 70.82662598 756.39278809 71.54223633 756.2409668 C86.4434339 753.34091615 101.55784646 752.6913322 116.6953125 752.734375 C118.42430678 752.73302015 120.15330069 752.73107291 121.8822937 752.72857666 C125.47723069 752.72565907 129.07206708 752.72980953 132.66699219 752.73925781 C137.19490197 752.75060012 141.72257533 752.7439161 146.25047684 752.73237896 C226.55535481 752.55854716 297.22293845 774.32928882 358 828 C358.95519531 828.84175781 359.91039062 829.68351563 360.89453125 830.55078125 C368.80190498 837.69599847 376.33037763 845.2263421 383.875 852.75 C384.42129059 853.29361176 384.96758118 853.83722351 385.53042603 854.39730835 C391.02877498 859.87521312 396.44685006 865.37001745 401.49267578 871.27441406 C403.86143625 873.98617289 406.42102616 876.48998268 409 879 C412.25858637 882.17145839 415.37755951 885.39415852 418.34765625 888.83984375 C422.18768163 893.27680798 426.27844924 897.42591036 430.4375 901.5625 C431.14970703 902.27857422 431.86191406 902.99464844 432.59570312 903.73242188 C437.23239643 908.36069248 442.00658102 912.75987394 447 917 C447.59643311 917.50845459 448.19286621 918.01690918 448.80737305 918.54077148 C469.93427956 936.35571869 494.47248482 947.68185425 522.6628418 945.72485352 C545.42693555 943.62948978 565.98580317 932.07212729 581 915 C593.03963477 900.21057211 596.73984452 883.98798332 597.56613159 865.41847229 C597.60741302 864.51260992 597.64869446 863.60674754 597.69122684 862.67343479 C598.14202568 851.88529162 598.1403175 841.10013213 598.12939453 830.30444336 C598.13075367 828.01183037 598.13253646 825.71921759 598.13470459 823.42660522 C598.13921975 817.26293667 598.13751349 811.09928506 598.1343255 804.93561625 C598.13176889 798.43718471 598.13414874 791.93875449 598.13571167 785.44032288 C598.13764042 773.82920269 598.13455763 762.21809013 598.12945233 750.60697115 C598.12499335 740.14333181 598.12575613 729.67970359 598.13037109 719.21606445 C598.13576056 706.99111135 598.13769409 694.76616531 598.13475883 682.54121119 C598.13321461 676.09747302 598.13295036 669.65374246 598.13629532 663.21000481 C598.16709328 594.34720347 597.89349378 531.06022719 552 475 C551.18402344 473.98035156 550.36804688 472.96070313 549.52734375 471.91015625 C537.99247528 457.71051036 524.90728692 444.63605074 510 434 C509.41573242 433.58202148 508.83146484 433.16404297 508.22949219 432.73339844 C503.90807474 429.67815864 499.49606249 426.79119461 495 424 C494.34644531 423.59426758 493.69289063 423.18853516 493.01953125 422.77050781 C473.50550459 410.87148092 450.35967806 400.58613297 427.625 397.3125 C426.903125 397.19583984 426.18125 397.07917969 425.4375 396.95898438 C412.54254359 394.99815338 399.39355885 394.80193019 386.375 394.46875 C385.22315216 394.4379409 385.22315216 394.4379409 384.04803467 394.4065094 C368.39103171 393.98914549 352.73303848 393.75979074 337.0717144 393.58347416 C331.42799389 393.51929336 325.78457172 393.44113226 320.14111328 393.35717773 C316.86752032 393.30921864 313.59392027 393.26178093 310.3203125 393.21484375 C309.52252506 393.20339262 308.72473763 393.19194149 307.90277481 393.18014336 C298.92336089 393.05420364 289.94944087 392.98069628 280.96893311 393.04470825 C276.85708885 393.07183264 272.7456855 393.06586493 268.63378906 393.0546875 C266.82082141 393.05982157 265.00780217 393.08256817 263.1953125 393.12451172 C260.7504591 393.18070991 258.31245597 393.1772668 255.8671875 393.16015625 C253.88887939 393.18541382 253.88887939 393.18541382 251.87060547 393.21118164 C246.95865387 392.29380177 244.09141196 388.91068239 240.93303108 385.25695133 C237.12651119 378.84337104 237.86139566 371.7431085 238.02929688 364.51928711 C238.03671813 362.76217868 238.04002864 361.00504885 238.03956604 359.2479248 C238.04677728 355.47853749 238.08172735 351.71081276 238.13832092 347.94184685 C238.22674808 341.9671663 238.24579566 335.99345896 238.25476074 330.01820374 C238.28587008 316.2485845 238.40654247 302.48002826 238.5286026 288.71096802 C238.63951611 276.10319183 238.73092075 263.49605936 238.74979639 250.88776594 C238.76124312 244.96379334 238.81598026 239.04236935 238.90531158 233.11908233 C238.95204756 229.41213799 238.96069778 225.70576721 238.95973015 221.99855804 C238.96687457 220.29784987 238.98921861 218.59711562 239.02910042 216.89686012 C239.36287887 202.06908833 234.68328891 191.08809676 225.625 179.375 C216.36777731 169.90545569 204.13462814 164.95191284 191 164.5 C177.54763628 164.96284492 166.14735176 170.2519656 156.1875 179.1875 C146.22755436 189.86398849 143.99350723 204.86819311 142.125 218.75 C138.64312552 242.61945397 129.51139643 262.90378406 110 278 C100.63749169 284.64798352 91.08410456 289.03260193 80 292 C78.63681641 292.36738281 78.63681641 292.36738281 77.24609375 292.7421875 C57.11556054 297.22929872 34.36019741 293.40423021 17 282.4375 C0.24781378 270.67108349 -14.39485236 255.16442084 -18.875 234.625 C-21.21624587 220.07608103 -21.16954917 205.35868209 -21.24047852 190.65991211 C-21.25332458 188.6689333 -21.26646066 186.67795635 -21.27986145 184.6869812 C-21.3947683 166.67320439 -21.45222466 148.65891712 -21.49662876 130.6448431 C-21.52997323 117.3488006 -21.58983852 104.0534321 -21.68413979 90.75767893 C-21.7484061 81.37898971 -21.78215303 72.00048499 -21.79337829 62.621584 C-21.80093616 57.02931436 -21.82210419 51.43786607 -21.87640572 45.84583855 C-21.92679991 40.59639178 -21.93946099 35.34820304 -21.92315483 30.0985527 C-21.92375875 28.17441777 -21.93804652 26.25023056 -21.96710205 24.32631493 C-22.17518432 9.78843117 -22.17518432 9.78843117 -19.22727776 5.30221748 C-17.21963978 3.50077174 -15.40585748 2.20085783 -13 1 C-8.98569896 -1.00715052 -4.35208913 -0.6241812 0 0 Z " fill="#080808" transform="translate(348,0)"/>
<path d="M0 0 C0.96719971 0.00902344 1.93439941 0.01804687 2.9309082 0.02734375 C15.7736453 0.33693681 25.64494859 3.7069601 35.25 12.4375 C46.33291814 24.1332984 49.8679493 34.20480834 50.765625 50.09375 C50.80779648 50.82710068 50.84996796 51.56045135 50.89341736 52.31602478 C51.37974835 61.20518183 51.59716498 70.10095089 51.8125 79 C51.855862 80.7050847 51.89948066 82.41016289 51.94335938 84.11523438 C52.04851541 88.22258768 52.15025542 92.33001187 52.25 96.4375 C52.80328979 96.44558685 53.35657959 96.45367371 53.92663574 96.46200562 C59.7685156 96.54912976 65.61009715 96.64865674 71.45166016 96.75488281 C73.62185594 96.79279297 75.7921065 96.8277063 77.96240234 96.859375 C119.68108747 97.47543311 119.68108747 97.47543311 135.25 113.4375 C145.51159917 124.477703 148.86169717 137.03317814 148.58984375 151.75 C147.98660753 164.14512754 140.84462415 176.40807069 131.9375 184.8125 C120.51527489 194.26003534 108.66028401 195.76206906 94.2421875 195.6328125 C93.0355545 195.6299826 91.82892151 195.62715271 90.58572388 195.62423706 C86.7653779 195.61312141 82.94527406 195.58803273 79.125 195.5625 C76.52083674 195.55245907 73.91666977 195.54333518 71.3125 195.53515625 C64.95825196 195.51321033 58.60414329 195.47981937 52.25 195.4375 C52.23018066 196.50371582 52.21036133 197.56993164 52.18994141 198.66845703 C51.50365672 234.37677048 51.50365672 234.37677048 50.375 247.25 C50.30877441 248.06291504 50.24254883 248.87583008 50.17431641 249.71337891 C49.42536017 257.25563963 47.80932165 265.01170365 43.3125 271.25 C42.58740234 272.28060547 42.58740234 272.28060547 41.84765625 273.33203125 C41.32042969 274.02683594 40.79320312 274.72164062 40.25 275.4375 C39.62867188 276.26636719 39.00734375 277.09523438 38.3671875 277.94921875 C30.01543598 287.76483816 17.77346629 293.15853548 5.125 294.375 C-9.01900304 294.89131869 -21.75225096 290.79207317 -32.56640625 281.53515625 C-45.62893213 268.98671904 -48.66160249 253.23984781 -49.01576233 235.83370972 C-49.03247482 234.81350739 -49.04918732 233.79330505 -49.06640625 232.7421875 C-49.0975779 231.13200241 -49.0975779 231.13200241 -49.12937927 229.48928833 C-49.19419128 226.09708375 -49.25343834 222.70480907 -49.3125 219.3125 C-49.3557504 216.9973889 -49.39936664 214.68228461 -49.44335938 212.3671875 C-49.54980144 206.72403007 -49.6516881 201.08080462 -49.75 195.4375 C-50.41461746 195.44194122 -51.07923492 195.44638245 -51.76399231 195.45095825 C-58.72406856 195.49544012 -65.68410396 195.52546903 -72.64428711 195.54736328 C-75.23675173 195.55737841 -77.82920518 195.57099439 -80.42163086 195.58837891 C-84.16262583 195.61282515 -87.90347055 195.62402836 -91.64453125 195.6328125 C-92.79081497 195.64313507 -93.93709869 195.65345764 -95.11811829 195.66409302 C-111.13247834 195.66629163 -121.64644739 192.0046011 -133.421875 180.98828125 C-143.5343714 169.90865013 -146.56622998 157.45947981 -146.09375 142.9140625 C-145.25437649 128.77061884 -138.26657717 116.99281263 -128.13671875 107.37890625 C-112.33991193 94.52945782 -89.00313917 97.25385158 -69.875 96.875 C-67.81900365 96.8317005 -65.76301396 96.78808305 -63.70703125 96.74414062 C-58.72142341 96.63826528 -53.73574536 96.53667915 -48.75 96.4375 C-48.75999275 95.58877319 -48.75999275 95.58877319 -48.77018738 94.72290039 C-48.83735415 88.75152358 -48.88213195 82.78025665 -48.91479492 76.80859375 C-48.929739 74.5897993 -48.95010168 72.37103364 -48.97631836 70.15234375 C-49.22175741 48.82320918 -48.87294041 29.03944359 -33.23828125 12.6953125 C-23.39861247 3.76701022 -13.15587154 -0.14703148 0 0 Z M-10.75 38.4375 C-11.43585175 38.81691742 -12.12170349 39.19633484 -12.82833862 39.58724976 C-15.05244386 41.36444368 -15.05244386 41.36444368 -15.29348755 44.54702759 C-15.31410248 45.82782196 -15.33471741 47.10861633 -15.35595703 48.42822266 C-15.38127502 49.48984116 -15.38127502 49.48984116 -15.40710449 50.57290649 C-15.45873046 52.91581913 -15.48296745 55.25822607 -15.5078125 57.6015625 C-15.54017713 59.23485259 -15.5745387 60.86810423 -15.61080933 62.50131226 C-15.70227176 66.8081875 -15.77179396 71.11511579 -15.83520508 75.42248535 C-15.93880059 82.29506221 -16.07023214 89.16706157 -16.21163559 96.03895187 C-16.25693086 98.43002198 -16.28972601 100.82102254 -16.32107544 103.21231079 C-16.63038563 122.17657801 -16.63038563 122.17657801 -20.625 126.4375 C-30.07356214 130.88388218 -42.69292785 129.60904269 -52.91796875 129.90234375 C-55.38217165 129.98080023 -57.84636409 130.05958603 -60.31054688 130.13867188 C-64.13491723 130.25843706 -67.95931259 130.37563548 -71.78393555 130.48706055 C-75.51638958 130.59715469 -79.24839035 130.71775491 -82.98046875 130.83984375 C-84.11300583 130.87013168 -85.24554291 130.90041962 -86.41239929 130.93162537 C-98.83204759 130.93411432 -98.83204759 130.93411432 -109.3125 136.5 C-112.23846693 140.52947446 -113.41643973 144.47337842 -112.75 149.4375 C-111.46720041 152.43968224 -109.76835547 154.88472136 -107.75 157.4375 C-107.19062241 158.28919266 -106.63124481 159.14088531 -106.05491638 160.01838684 C-103.94941395 162.68381487 -103.94941395 162.68381487 -100.81288147 163.0632782 C-99.09964943 163.06422234 -99.09964943 163.06422234 -97.35180664 163.06518555 C-96.05267838 163.07837326 -94.75355011 163.09156097 -93.41505432 163.10514832 C-91.99675339 163.0950571 -90.57845404 163.08474143 -89.16015625 163.07421875 C-87.69484443 163.08226741 -86.22954431 163.09279045 -84.76426697 163.10566711 C-80.9008392 163.13423654 -77.03794704 163.13479479 -73.17443848 163.12780762 C-67.02413544 163.1204968 -60.87400842 163.15228537 -54.72384453 163.19025612 C-52.59425304 163.19897675 -50.46505383 163.19385425 -48.33546448 163.18669128 C-25.10945034 163.19380445 -25.10945034 163.19380445 -18.75 168.4375 C-16.91504453 173.07411687 -16.47761518 177.37739718 -16.37109375 182.33154297 C-16.35450714 182.98135132 -16.33792053 183.63115967 -16.3208313 184.30065918 C-16.28628825 185.69896107 -16.25588664 187.09737041 -16.22927856 188.49584579 C-16.18678447 190.71708971 -16.13277988 192.93780185 -16.07592773 195.15872192 C-15.95718187 199.87643747 -15.85260897 204.59440959 -15.75 209.3125 C-15.63094562 214.77784866 -15.50589919 220.24293384 -15.36624146 225.707798 C-15.31366122 227.88167804 -15.27169371 230.0555898 -15.23022461 232.22970581 C-15.25134946 244.03613524 -15.25134946 244.03613524 -11.19140625 254.84765625 C-7.27385951 258.2928169 -4.41635735 259.90843694 0.875 260.125 C5.67714966 259.78625915 8.64625352 258.77755771 12.25 255.4375 C18.03186689 248.5617664 17.39823617 240.17551162 17.53125 231.62109375 C17.54925156 230.69466568 17.56725311 229.76823761 17.58580017 228.81373596 C17.62393026 226.84615123 17.66038682 224.87853344 17.69528198 222.91088867 C17.78677043 217.83488717 17.89567031 212.75926144 18.00390625 207.68359375 C18.02477798 206.69692719 18.04564972 205.71026062 18.06715393 204.69369507 C18.2263517 197.27302588 18.40496438 189.85469062 18.6875 182.4375 C18.72810547 181.11770142 18.72810547 181.11770142 18.76953125 179.77124023 C19.09817533 172.01729394 19.09817533 172.01729394 21.25 168.4375 C30.15965226 162.16822205 42.36021464 163.19201739 52.78809547 163.37706184 C56.46462632 163.43482416 60.14144552 163.43301412 63.81835938 163.44335938 C68.45809827 163.46089064 73.09614382 163.49548264 77.73510742 163.5847168 C81.52454604 163.65605534 85.31096307 163.67332904 89.10098839 163.65545464 C90.53196821 163.65855714 91.96305614 163.6811985 93.39338112 163.72459602 C101.84167835 164.04614152 101.84167835 164.04614152 108.91098022 160.03610229 C112.49496993 155.23300752 115.71685963 150.62339006 115.25 144.4375 C113.707404 140.12305182 111.7526013 136.4462677 108.25 133.4375 C101.0366946 130.91845874 93.0296238 131.0417341 85.48046875 130.83984375 C84.28247147 130.80065323 83.08447418 130.76146271 81.85017395 130.72108459 C78.0461486 130.59787786 74.24190411 130.48583602 70.4375 130.375 C66.64389733 130.25869412 62.85039303 130.1399507 59.05696106 130.01820374 C56.70623222 129.9433601 54.35539331 129.87186421 52.00444031 129.8044281 C28.55815949 129.08221437 28.55815949 129.08221437 22.25 125.4375 C18.67062984 120.06844477 18.96349797 114.11871353 18.69140625 107.83984375 C18.64842911 106.88125961 18.60545197 105.92267548 18.56117249 104.93504333 C18.25179312 97.26808377 18.20197906 89.61372962 18.21484375 81.94140625 C18.20714684 78.46703444 18.19722594 74.99267506 18.18676758 71.51831055 C18.18726146 69.14587903 18.20056377 66.77342007 18.22583008 64.40112305 C18.25886488 60.91345607 18.24146275 57.42906228 18.21484375 53.94140625 C18.24867409 52.36015709 18.24867409 52.36015709 18.28318787 50.7469635 C18.19085117 45.08995485 18.19085117 45.08995485 15.54519653 40.24020386 C10.65725457 35.83699656 6.17547004 32.8953253 -0.59375 33.046875 C-4.56639326 33.76655675 -7.56589168 36.06279736 -10.75 38.4375 Z " fill="#070707" transform="translate(243.75,457.5625)"/>
<path d="M0 0 C11.39602133 7.82919149 18.14303651 17.933787 21.6171875 31.390625 C23.74693987 45.90771258 21.39455358 59.21393656 13.04296875 71.4296875 C5.22136763 81.27024876 -4.5677412 87.76186488 -17 90 C-33.25186626 91.54934231 -46.82706958 89.12499406 -60 79 C-69.22702083 70.96472745 -75.35984604 57.73860958 -76.24609375 45.640625 C-76.77607059 29.90191888 -71.71763526 16.45810603 -61.02734375 4.87890625 C-44.04654663 -10.85859551 -19.40607663 -12.30723349 0 0 Z M-38.75 31.875 C-41.53478828 35.7427615 -43.07985253 38.12346558 -42.875 42.9375 C-41.4422463 47.95213794 -39.17707966 51.05321854 -35.125 54.3125 C-31.24665003 56.40680898 -28.43305279 57.49908775 -24.01953125 56.59375 C-18.71589305 54.92205916 -16.12991377 52.55260185 -13 48 C-11.27293099 42.81879298 -11.44926086 38.64785821 -13.8125 33.75 C-15.48939776 30.53755218 -17.27306315 27.67843948 -20.75 26.3125 C-28.4395028 25.2445135 -33.28565404 26.16227468 -38.75 31.875 Z " fill="#080808" transform="translate(762,661)"/>
<path d="M0 0 C10.84772298 7.40423599 19.25153435 16.97872433 22.3671875 29.95703125 C24.68607955 43.98080699 23.68182084 58.08946628 16.0546875 70.26953125 C10.89518306 77.42248058 4.71972371 82.02223846 -2.9453125 86.26953125 C-3.66332031 86.68203125 -4.38132812 87.09453125 -5.12109375 87.51953125 C-16.83525669 93.52000643 -30.32451048 93.05195025 -42.66015625 89.484375 C-54.54635381 85.25369451 -63.7420694 76.05703917 -69.9453125 65.26953125 C-76.08444326 52.19473693 -77.11994538 37.9913187 -72.26171875 24.296875 C-66.12541834 10.18520492 -56.1148016 1.0869168 -41.9453125 -4.73046875 C-28.89246894 -8.59400137 -11.64919958 -6.844291 0 0 Z M-39.9453125 35.08203125 C-41.57457989 40.27532104 -41.63664888 44.31074484 -39.8203125 49.45703125 C-37.23066798 53.34149803 -34.17217209 56.15610146 -29.9453125 58.26953125 C-24.6620069 58.71726901 -20.97810952 58.53463479 -16.48828125 55.5859375 C-12.89749943 52.52240972 -11.26600537 49.35568797 -10.56640625 44.8046875 C-10.36858258 40.56105075 -10.70700577 37.78427378 -12.5078125 33.89453125 C-16.589798 29.49854687 -19.91015094 27.56026862 -25.8828125 26.70703125 C-31.936924 27.04860563 -36.50489912 30.24394993 -39.9453125 35.08203125 Z " fill="#080808" transform="translate(760.9453125,463.73046875)"/>
<path d="M0 0 C11.42430531 9.90566653 19.11530216 20.63971162 20.4609375 35.9921875 C20.81234233 51.47352245 15.17052889 64.47768126 4.8125 75.79296875 C-6.20316358 86.19068047 -20.08023159 88.59914787 -34.57421875 88.30078125 C-47.57884402 87.7099962 -58.11092448 81.24720565 -66.9453125 71.93359375 C-75.73451712 61.22713617 -79.39843522 48.74215095 -78.5390625 34.9921875 C-76.93646575 21.07249003 -70.59091889 8.25846041 -59.61328125 -0.59765625 C-41.15384496 -13.14729184 -17.87799807 -14.13737078 0 0 Z M-41.8671875 29.53515625 C-44.80496589 34.05561102 -45.12933637 37.67972263 -44.5390625 42.9921875 C-42.8237715 47.85217867 -40.10710697 51.51041442 -35.5390625 53.9921875 C-31.17045432 55.26832215 -27.69749683 55.35561788 -23.3515625 53.9921875 C-18.60802813 50.6190075 -14.56772708 46.97450168 -13.4140625 41.0546875 C-13.16889666 36.37837603 -14.77292061 32.70507438 -17.5390625 28.9921875 C-25.34174124 22.78189218 -34.92974215 21.47547709 -41.8671875 29.53515625 Z " fill="#080808" transform="translate(862.5390625,565.0078125)"/>
<path d="M0 0 C10.3910789 7.98793036 15.99990066 18.03155382 19.0859375 30.65625 C20.59521718 46.05090272 18.16706629 60.25962643 8.2421875 72.50390625 C-1.06472792 82.52092723 -12.58697202 88.56575481 -26.28515625 89.14453125 C-41.66999564 89.33427069 -51.66507924 86.96782569 -63.3515625 76.34375 C-64.4653125 75.10625 -64.4653125 75.10625 -65.6015625 73.84375 C-66.08109375 73.34488281 -66.560625 72.84601563 -67.0546875 72.33203125 C-76.61136098 61.97896832 -79.21749189 50.03708995 -78.9140625 36.36328125 C-78.31532444 24.40099372 -72.31419337 13.76976041 -64.6015625 4.84375 C-45.96253176 -11.57964558 -20.96088987 -14.50665692 0 0 Z M-42.9140625 31.59375 C-44.90635202 35.43075203 -45.80121891 38.52075465 -45.6015625 42.84375 C-43.87721976 48.23232106 -40.36598238 51.9147254 -35.6015625 54.84375 C-31.32227541 56.35705388 -28.25474394 56.03195482 -23.9140625 54.78125 C-19.59248249 52.25353339 -16.87143616 49.38349732 -14.6015625 44.84375 C-14.06437488 39.94741692 -14.07737542 35.9759941 -16.1640625 31.46875 C-20.34795856 26.96301578 -24.05230927 24.65242441 -30.1640625 24.34375 C-36.00480662 24.64174715 -39.20481277 27.18275032 -42.9140625 31.59375 Z " fill="#080808" transform="translate(666.6015625,564.15625)"/>
<path d="M0 0 C0.66 0.33 1.32 0.66 2 1 C-14.17 17.17 -30.34 33.34 -47 50 C-47.66 49.67 -48.32 49.34 -49 49 C-39.91323585 39.08582318 -30.56302513 29.45339617 -21.0625 19.9375 C-20.52529327 19.39779572 -19.98808655 18.85809143 -19.43460083 18.30203247 C-13.4702339 12.31491858 -7.44526298 6.47477063 -1 1 C-0.67 0.67 -0.34 0.34 0 0 Z " fill="#5A5A5A" transform="translate(279,823)"/>
<path d="M0 0 C0.66 0.33 1.32 0.66 2 1 C-3.28 6.28 -8.56 11.56 -14 17 C-14.66 16.67 -15.32 16.34 -16 16 C-14.27538679 14.07906479 -12.54557391 12.163278 -10.8125 10.25 C-10.32974609 9.71117187 -9.84699219 9.17234375 -9.34960938 8.6171875 C-6.43837795 5.41287909 -3.47293499 2.6158121 0 0 Z " fill="#676767" transform="translate(490,146)"/>
<path d="M0 0 C0.66 0.33 1.32 0.66 2 1 C-2.62 5.62 -7.24 10.24 -12 15 C-12.66 14.67 -13.32 14.34 -14 14 C-12.60919892 12.41224451 -11.21211596 10.82999061 -9.8125 9.25 C-8.64654297 7.92742188 -8.64654297 7.92742188 -7.45703125 6.578125 C-5.11544754 4.12113732 -2.69841735 2.05137234 0 0 Z " fill="#626262" transform="translate(121,561)"/>
<path d="M0 0 C0.66 0.33 1.32 0.66 2 1 C-2.62 5.62 -7.24 10.24 -12 15 C-12 10.09687565 -8.29800369 7.38658643 -5 4 C-3.37458956 2.61667196 -1.72614587 1.25537882 0 0 Z " fill="#636363" transform="translate(707,465)"/>
<path d="M0 0 C0.66 0.33 1.32 0.66 2 1 C-2.29 5.29 -6.58 9.58 -11 14 C-11 10.30159372 -10.17133056 9.68584567 -7.75 7 C-7.14671875 6.319375 -6.5434375 5.63875 -5.921875 4.9375 C-4.06233388 3.06284066 -2.15205789 1.52358081 0 0 Z " fill="#6C6C6C" transform="translate(805,563)"/>
<path d="M0 0 C0.66 0.33 1.32 0.66 2 1 C-2.29 5.29 -6.58 9.58 -11 14 C-11 10.30159372 -10.17133056 9.68584567 -7.75 7 C-7.14671875 6.319375 -6.5434375 5.63875 -5.921875 4.9375 C-4.06233388 3.06284066 -2.15205789 1.52358081 0 0 Z " fill="#696969" transform="translate(707,661)"/>
<path d="M0 0 C0.66 0.33 1.32 0.66 2 1 C-1.63 4.63 -5.26 8.26 -9 12 C-9.66 11.67 -10.32 11.34 -11 11 C-9.92173635 9.72486237 -8.83714481 8.45507431 -7.75 7.1875 C-7.14671875 6.47980469 -6.5434375 5.77210938 -5.921875 5.04296875 C-4.07629602 3.08110329 -2.20054668 1.54330375 0 0 Z " fill="#646464" transform="translate(217,465)"/>
</svg>
